ply
format ascii 1.0
comment Created by Blender 2.92.0 Beta - www.blender.org
element vertex 240
property float x
property float y
property float z
property float nx
property float ny
property float nz
property float s
property float t
element face 80
property list uchar uint vertex_indices
end_header
0.000000 -1.000000 0.000000 -0.102381 -0.943523 -0.315090 0.750027 0.262860
-0.425323 -0.850654 -0.309011 -0.102381 -0.943523 -0.315090 0.772417 0.331769
0.162456 -0.850654 -0.499995 -0.102381 -0.943523 -0.315090 0.691410 0.305449
-0.723607 -0.447220 -0.525725 -0.700224 -0.661699 -0.268032 0.799032 0.413678
-0.425323 -0.850654 -0.309011 -0.700224 -0.661699 -0.268032 0.772417 0.331769
-0.850648 -0.525736 0.000000 -0.700224 -0.661699 -0.268032 0.866018 0.347132
0.000000 -1.000000 0.000000 0.268034 -0.943523 -0.194736 0.750027 0.262860
0.162456 -0.850654 -0.499995 0.268034 -0.943523 -0.194736 0.691410 0.305449
0.525730 -0.850652 0.000000 0.268034 -0.943523 -0.194736 0.691409 0.220273
0.000000 -1.000000 0.000000 0.268034 -0.943523 0.194737 0.750027 0.262860
0.525730 -0.850652 0.000000 0.268034 -0.943523 0.194737 0.691409 0.220273
0.162456 -0.850654 0.499995 0.268034 -0.943523 0.194737 0.772417 0.193952
0.000000 -1.000000 0.000000 -0.102381 -0.943523 0.315090 0.750027 0.262860
0.162456 -0.850654 0.499995 -0.102381 -0.943523 0.315090 0.772417 0.193952
-0.425323 -0.850654 0.309011 -0.102381 -0.943523 0.315090 0.822481 0.262861
-0.723607 -0.447220 -0.525725 -0.904989 -0.330385 -0.268032 0.799032 0.413678
-0.850648 -0.525736 0.000000 -0.904989 -0.330385 -0.268032 0.866018 0.347132
-0.951058 0.000000 -0.309013 -0.904989 -0.330385 -0.268032 0.904544 0.475384
0.276388 -0.447220 -0.850649 -0.024747 -0.330386 -0.943521 0.621734 0.356072
-0.262869 -0.525738 -0.809012 -0.024747 -0.330386 -0.943521 0.705724 0.399216
0.000000 0.000000 -1.000000 -0.024747 -0.330386 -0.943521 0.595653 0.475488
0.894426 -0.447216 0.000000 0.889697 -0.330385 -0.315095 0.621733 0.169650
0.688189 -0.525736 -0.499997 0.889697 -0.330385 -0.315095 0.606655 0.262861
0.951058 0.000000 -0.309013 0.889697 -0.330385 -0.315095 0.500103 0.181746
0.276388 -0.447220 0.850649 0.574602 -0.330388 0.748784 0.799031 0.112043
0.688189 -0.525736 0.499997 0.574602 -0.330388 0.748784 0.705722 0.126506
0.587786 0.000000 0.809017 0.574602 -0.330388 0.748784 0.749939 0.000102
-0.723607 -0.447220 0.525725 -0.534576 -0.330387 0.777865 0.908606 0.262861
-0.262869 -0.525738 0.809012 -0.534576 -0.330387 0.777865 0.866018 0.178589
-0.587786 0.000000 0.809017 -0.534576 -0.330387 0.777865 0.999897 0.181580
-0.723607 -0.447220 -0.525725 -0.802609 -0.125627 -0.583126 0.799032 0.413678
-0.951058 0.000000 -0.309013 -0.802609 -0.125627 -0.583126 0.904544 0.475384
-0.587786 0.000000 -0.809017 -0.802609 -0.125627 -0.583126 0.749940 0.525618
0.276388 -0.447220 -0.850649 0.306569 -0.125629 -0.943522 0.621734 0.356072
0.000000 0.000000 -1.000000 0.306569 -0.125629 -0.943522 0.595653 0.475488
0.587786 0.000000 -0.809017 0.306569 -0.125629 -0.943522 0.500103 0.343975
0.894426 -0.447216 0.000000 0.992077 -0.125628 0.000000 0.621733 0.169650
0.951058 0.000000 -0.309013 0.992077 -0.125628 0.000000 0.500103 0.181746
0.951058 0.000000 0.309013 0.992077 -0.125628 0.000000 0.595651 0.050234
0.276388 -0.447220 0.850649 0.306569 -0.125629 0.943522 0.799031 0.112043
0.587786 0.000000 0.809017 0.306569 -0.125629 0.943522 0.749939 0.000102
0.000000 0.000000 1.000000 0.306569 -0.125629 0.943522 0.904543 0.050336
-0.723607 -0.447220 0.525725 -0.802609 -0.125627 0.583126 0.908606 0.262861
-0.587786 0.000000 0.809017 -0.802609 -0.125627 0.583126 0.999897 0.181580
-0.951058 0.000000 0.309013 -0.802609 -0.125627 0.583126 0.999897 0.344141
-0.276388 0.447220 -0.850649 -0.408946 0.661698 -0.628425 0.121734 0.356072
-0.688189 0.525736 -0.499997 -0.408946 0.661698 -0.628425 0.106655 0.262861
-0.162456 0.850654 -0.499995 -0.408946 0.661698 -0.628425 0.191410 0.305449
0.723607 0.447220 -0.525725 0.471300 0.661699 -0.583122 0.299032 0.413678
0.262869 0.525738 -0.809012 0.471300 0.661699 -0.583122 0.205724 0.399216
0.425323 0.850654 -0.309011 0.471300 0.661699 -0.583122 0.272417 0.331769
0.723607 0.447220 0.525725 0.700224 0.661699 0.268032 0.408606 0.262861
0.850648 0.525736 0.000000 0.700224 0.661699 0.268032 0.366018 0.347132
0.425323 0.850654 0.309011 0.700224 0.661699 0.268032 0.322482 0.262861
-0.276388 0.447220 0.850649 -0.038530 0.661699 0.748779 0.299031 0.112043
0.262869 0.525738 0.809012 -0.038530 0.661699 0.748779 0.366018 0.178589
-0.162456 0.850654 0.499995 -0.038530 0.661699 0.748779 0.272417 0.193952
-0.894426 0.447216 0.000000 -0.724042 0.661695 0.194736 0.121733 0.169650
-0.688189 0.525736 0.499997 -0.724042 0.661695 0.194736 0.205722 0.126506
-0.525730 0.850652 0.000000 -0.724042 0.661695 0.194736 0.191409 0.220273
-0.525730 0.850652 0.000000 -0.268034 0.943523 0.194737 0.191409 0.220273
-0.162456 0.850654 0.499995 -0.268034 0.943523 0.194737 0.272417 0.193952
0.000000 1.000000 0.000000 -0.268034 0.943523 0.194737 0.250027 0.262860
-0.525730 0.850652 0.000000 -0.491119 0.794658 0.356821 0.191409 0.220273
-0.688189 0.525736 0.499997 -0.491119 0.794658 0.356821 0.205722 0.126506
-0.162456 0.850654 0.499995 -0.491119 0.794658 0.356821 0.272417 0.193952
-0.688189 0.525736 0.499997 -0.408946 0.661699 0.628425 0.205722 0.126506
-0.276388 0.447220 0.850649 -0.408946 0.661699 0.628425 0.299031 0.112043
-0.162456 0.850654 0.499995 -0.408946 0.661699 0.628425 0.272417 0.193952
-0.162456 0.850654 0.499995 0.102381 0.943523 0.315090 0.272417 0.193952
0.425323 0.850654 0.309011 0.102381 0.943523 0.315090 0.322482 0.262861
0.000000 1.000000 0.000000 0.102381 0.943523 0.315090 0.250027 0.262860
-0.162456 0.850654 0.499995 0.187594 0.794658 0.577345 0.272417 0.193952
0.262869 0.525738 0.809012 0.187594 0.794658 0.577345 0.366018 0.178589
0.425323 0.850654 0.309011 0.187594 0.794658 0.577345 0.322482 0.262861
0.262869 0.525738 0.809012 0.471300 0.661699 0.583122 0.366018 0.178589
0.723607 0.447220 0.525725 0.471300 0.661699 0.583122 0.408606 0.262861
0.425323 0.850654 0.309011 0.471300 0.661699 0.583122 0.322482 0.262861
0.425323 0.850654 0.309011 0.331305 0.943524 -0.000000 0.322482 0.262861
0.425323 0.850654 -0.309011 0.331305 0.943524 -0.000000 0.272417 0.331769
0.000000 1.000000 0.000000 0.331305 0.943524 -0.000000 0.250027 0.262860
0.425323 0.850654 0.309011 0.607060 0.794656 0.000000 0.322482 0.262861
0.850648 0.525736 0.000000 0.607060 0.794656 0.000000 0.366018 0.347132
0.425323 0.850654 -0.309011 0.607060 0.794656 0.000000 0.272417 0.331769
0.850648 0.525736 0.000000 0.700224 0.661699 -0.268032 0.366018 0.347132
0.723607 0.447220 -0.525725 0.700224 0.661699 -0.268032 0.299032 0.413678
0.425323 0.850654 -0.309011 0.700224 0.661699 -0.268032 0.272417 0.331769
0.425323 0.850654 -0.309011 0.102381 0.943523 -0.315090 0.272417 0.331769
-0.162456 0.850654 -0.499995 0.102381 0.943523 -0.315090 0.191410 0.305449
0.000000 1.000000 0.000000 0.102381 0.943523 -0.315090 0.250027 0.262860
0.425323 0.850654 -0.309011 0.187594 0.794658 -0.577345 0.272417 0.331769
0.262869 0.525738 -0.809012 0.187594 0.794658 -0.577345 0.205724 0.399216
-0.162456 0.850654 -0.499995 0.187594 0.794658 -0.577345 0.191410 0.305449
0.262869 0.525738 -0.809012 -0.038530 0.661699 -0.748779 0.205724 0.399216
-0.276388 0.447220 -0.850649 -0.038530 0.661699 -0.748779 0.121734 0.356072
-0.162456 0.850654 -0.499995 -0.038530 0.661699 -0.748779 0.191410 0.305449
-0.162456 0.850654 -0.499995 -0.268034 0.943523 -0.194737 0.191410 0.305449
-0.525730 0.850652 0.000000 -0.268034 0.943523 -0.194737 0.191409 0.220273
0.000000 1.000000 0.000000 -0.268034 0.943523 -0.194737 0.250027 0.262860
-0.162456 0.850654 -0.499995 -0.491119 0.794658 -0.356821 0.191410 0.305449
-0.688189 0.525736 -0.499997 -0.491119 0.794658 -0.356821 0.106655 0.262861
-0.525730 0.850652 0.000000 -0.491119 0.794658 -0.356821 0.191409 0.220273
-0.688189 0.525736 -0.499997 -0.724042 0.661695 -0.194736 0.106655 0.262861
-0.894426 0.447216 0.000000 -0.724042 0.661695 -0.194736 0.121733 0.169650
-0.525730 0.850652 0.000000 -0.724042 0.661695 -0.194736 0.191409 0.220273
-0.951058 0.000000 0.309013 -0.889697 0.330385 0.315095 0.095651 0.050234
-0.688189 0.525736 0.499997 -0.889697 0.330385 0.315095 0.205722 0.126506
-0.894426 0.447216 0.000000 -0.889697 0.330385 0.315095 0.121733 0.169650
-0.951058 0.000000 0.309013 -0.794656 0.187595 0.577348 0.095651 0.050234
-0.587786 0.000000 0.809017 -0.794656 0.187595 0.577348 0.249939 0.000102
-0.688189 0.525736 0.499997 -0.794656 0.187595 0.577348 0.205722 0.126506
-0.587786 0.000000 0.809017 -0.574602 0.330388 0.748784 0.249939 0.000102
-0.276388 0.447220 0.850649 -0.574602 0.330388 0.748784 0.299031 0.112043
-0.688189 0.525736 0.499997 -0.574602 0.330388 0.748784 0.205722 0.126506
0.000000 0.000000 1.000000 0.024747 0.330386 0.943521 0.404542 0.050336
0.262869 0.525738 0.809012 0.024747 0.330386 0.943521 0.366018 0.178589
-0.276388 0.447220 0.850649 0.024747 0.330386 0.943521 0.299031 0.112043
0.000000 0.000000 1.000000 0.303531 0.187597 0.934171 0.404542 0.050336
0.587786 0.000000 0.809017 0.303531 0.187597 0.934171 0.499897 0.181580
0.262869 0.525738 0.809012 0.303531 0.187597 0.934171 0.366018 0.178589
0.587786 0.000000 0.809017 0.534576 0.330387 0.777865 0.499897 0.181580
0.723607 0.447220 0.525725 0.534576 0.330387 0.777865 0.408606 0.262861
0.262869 0.525738 0.809012 0.534576 0.330387 0.777865 0.366018 0.178589
0.951058 0.000000 0.309013 0.904989 0.330385 0.268032 0.499897 0.344141
0.850648 0.525736 0.000000 0.904989 0.330385 0.268032 0.366018 0.347132
0.723607 0.447220 0.525725 0.904989 0.330385 0.268032 0.408606 0.262861
0.951058 0.000000 0.309013 0.982246 0.187599 -0.000000 0.499897 0.344141
0.951058 0.000000 -0.309013 0.982246 0.187599 -0.000000 0.404544 0.475384
0.850648 0.525736 0.000000 0.982246 0.187599 -0.000000 0.366018 0.347132
0.951058 0.000000 -0.309013 0.904989 0.330385 -0.268031 0.404544 0.475384
0.723607 0.447220 -0.525725 0.904989 0.330385 -0.268031 0.299032 0.413678
0.850648 0.525736 0.000000 0.904989 0.330385 -0.268031 0.366018 0.347132
0.587786 0.000000 -0.809017 0.534576 0.330387 -0.777865 0.249940 0.525618
0.262869 0.525738 -0.809012 0.534576 0.330387 -0.777865 0.205724 0.399216
0.723607 0.447220 -0.525725 0.534576 0.330387 -0.777865 0.299032 0.413678
0.587786 0.000000 -0.809017 0.303531 0.187597 -0.934171 0.249940 0.525618
0.000000 0.000000 -1.000000 0.303531 0.187597 -0.934171 0.095653 0.475488
0.262869 0.525738 -0.809012 0.303531 0.187597 -0.934171 0.205724 0.399216
0.000000 0.000000 -1.000000 0.024747 0.330386 -0.943521 0.095653 0.475488
-0.276388 0.447220 -0.850649 0.024747 0.330386 -0.943521 0.121734 0.356072
0.262869 0.525738 -0.809012 0.024747 0.330386 -0.943521 0.205724 0.399216
-0.587786 0.000000 -0.809017 -0.574602 0.330388 -0.748784 0.000103 0.343975
-0.688189 0.525736 -0.499997 -0.574602 0.330388 -0.748784 0.106655 0.262861
-0.276388 0.447220 -0.850649 -0.574602 0.330388 -0.748784 0.121734 0.356072
-0.587786 0.000000 -0.809017 -0.794656 0.187595 -0.577348 0.000103 0.343975
-0.951058 0.000000 -0.309013 -0.794656 0.187595 -0.577348 0.000102 0.181746
-0.688189 0.525736 -0.499997 -0.794656 0.187595 -0.577348 0.106655 0.262861
-0.951058 0.000000 -0.309013 -0.889697 0.330385 -0.315095 0.000102 0.181746
-0.894426 0.447216 0.000000 -0.889697 0.330385 -0.315095 0.121733 0.169650
-0.688189 0.525736 -0.499997 -0.889697 0.330385 -0.315095 0.106655 0.262861
-0.587786 0.000000 0.809017 -0.306569 0.125629 0.943522 0.249939 0.000102
0.000000 0.000000 1.000000 -0.306569 0.125629 0.943522 0.404542 0.050336
-0.276388 0.447220 0.850649 -0.306569 0.125629 0.943522 0.299031 0.112043
-0.587786 0.000000 0.809017 -0.303531 -0.187597 0.934171 0.999897 0.181580
-0.262869 -0.525738 0.809012 -0.303531 -0.187597 0.934171 0.866018 0.178589
0.000000 0.000000 1.000000 -0.303531 -0.187597 0.934171 0.904543 0.050336
-0.262869 -0.525738 0.809012 -0.024747 -0.330386 0.943521 0.866018 0.178589
0.276388 -0.447220 0.850649 -0.024747 -0.330386 0.943521 0.799031 0.112043
0.000000 0.000000 1.000000 -0.024747 -0.330386 0.943521 0.904543 0.050336
0.587786 0.000000 0.809017 0.802609 0.125627 0.583126 0.499897 0.181580
0.951058 0.000000 0.309013 0.802609 0.125627 0.583126 0.499897 0.344141
0.723607 0.447220 0.525725 0.802609 0.125627 0.583126 0.408606 0.262861
0.587786 0.000000 0.809017 0.794656 -0.187595 0.577348 0.749939 0.000102
0.688189 -0.525736 0.499997 0.794656 -0.187595 0.577348 0.705722 0.126506
0.951058 0.000000 0.309013 0.794656 -0.187595 0.577348 0.595651 0.050234
0.688189 -0.525736 0.499997 0.889697 -0.330385 0.315095 0.705722 0.126506
0.894426 -0.447216 0.000000 0.889697 -0.330385 0.315095 0.621733 0.169650
0.951058 0.000000 0.309013 0.889697 -0.330385 0.315095 0.595651 0.050234
0.951058 0.000000 -0.309013 0.802609 0.125627 -0.583126 0.404544 0.475384
0.587786 0.000000 -0.809017 0.802609 0.125627 -0.583126 0.249940 0.525618
0.723607 0.447220 -0.525725 0.802609 0.125627 -0.583126 0.299032 0.413678
0.951058 0.000000 -0.309013 0.794656 -0.187595 -0.577348 0.500103 0.181746
0.688189 -0.525736 -0.499997 0.794656 -0.187595 -0.577348 0.606655 0.262861
0.587786 0.000000 -0.809017 0.794656 -0.187595 -0.577348 0.500103 0.343975
0.688189 -0.525736 -0.499997 0.574602 -0.330388 -0.748784 0.606655 0.262861
0.276388 -0.447220 -0.850649 0.574602 -0.330388 -0.748784 0.621734 0.356072
0.587786 0.000000 -0.809017 0.574602 -0.330388 -0.748784 0.500103 0.343975
0.000000 0.000000 -1.000000 -0.306569 0.125629 -0.943522 0.095653 0.475488
-0.587786 0.000000 -0.809017 -0.306569 0.125629 -0.943522 0.000103 0.343975
-0.276388 0.447220 -0.850649 -0.306569 0.125629 -0.943522 0.121734 0.356072
0.000000 0.000000 -1.000000 -0.303531 -0.187597 -0.934171 0.595653 0.475488
-0.262869 -0.525738 -0.809012 -0.303531 -0.187597 -0.934171 0.705724 0.399216
-0.587786 0.000000 -0.809017 -0.303531 -0.187597 -0.934171 0.749940 0.525618
-0.262869 -0.525738 -0.809012 -0.534576 -0.330387 -0.777865 0.705724 0.399216
-0.723607 -0.447220 -0.525725 -0.534576 -0.330387 -0.777865 0.799032 0.413678
-0.587786 0.000000 -0.809017 -0.534576 -0.330387 -0.777865 0.749940 0.525618
-0.951058 0.000000 -0.309013 -0.992077 0.125628 0.000000 0.000102 0.181746
-0.951058 0.000000 0.309013 -0.992077 0.125628 0.000000 0.095651 0.050234
-0.894426 0.447216 0.000000 -0.992077 0.125628 0.000000 0.121733 0.169650
-0.951058 0.000000 -0.309013 -0.982246 -0.187599 0.000000 0.904544 0.475384
-0.850648 -0.525736 0.000000 -0.982246 -0.187599 0.000000 0.866018 0.347132
-0.951058 0.000000 0.309013 -0.982246 -0.187599 0.000000 0.999897 0.344141
-0.850648 -0.525736 0.000000 -0.904989 -0.330385 0.268031 0.866018 0.347132
-0.723607 -0.447220 0.525725 -0.904989 -0.330385 0.268031 0.908606 0.262861
-0.951058 0.000000 0.309013 -0.904989 -0.330385 0.268031 0.999897 0.344141
-0.425323 -0.850654 0.309011 -0.471300 -0.661699 0.583122 0.822481 0.262861
-0.262869 -0.525738 0.809012 -0.471300 -0.661699 0.583122 0.866018 0.178589
-0.723607 -0.447220 0.525725 -0.471300 -0.661699 0.583122 0.908606 0.262861
-0.425323 -0.850654 0.309011 -0.187594 -0.794658 0.577345 0.822481 0.262861
0.162456 -0.850654 0.499995 -0.187594 -0.794658 0.577345 0.772417 0.193952
-0.262869 -0.525738 0.809012 -0.187594 -0.794658 0.577345 0.866018 0.178589
0.162456 -0.850654 0.499995 0.038530 -0.661699 0.748779 0.772417 0.193952
0.276388 -0.447220 0.850649 0.038530 -0.661699 0.748779 0.799031 0.112043
-0.262869 -0.525738 0.809012 0.038530 -0.661699 0.748779 0.866018 0.178589
0.162456 -0.850654 0.499995 0.408946 -0.661698 0.628425 0.772417 0.193952
0.688189 -0.525736 0.499997 0.408946 -0.661698 0.628425 0.705722 0.126506
0.276388 -0.447220 0.850649 0.408946 -0.661698 0.628425 0.799031 0.112043
0.162456 -0.850654 0.499995 0.491119 -0.794657 0.356821 0.772417 0.193952
0.525730 -0.850652 0.000000 0.491119 -0.794657 0.356821 0.691409 0.220273
0.688189 -0.525736 0.499997 0.491119 -0.794657 0.356821 0.705722 0.126506
0.525730 -0.850652 0.000000 0.724042 -0.661695 0.194736 0.691409 0.220273
0.894426 -0.447216 0.000000 0.724042 -0.661695 0.194736 0.621733 0.169650
0.688189 -0.525736 0.499997 0.724042 -0.661695 0.194736 0.705722 0.126506
0.525730 -0.850652 0.000000 0.724042 -0.661695 -0.194736 0.691409 0.220273
0.688189 -0.525736 -0.499997 0.724042 -0.661695 -0.194736 0.606655 0.262861
0.894426 -0.447216 0.000000 0.724042 -0.661695 -0.194736 0.621733 0.169650
0.525730 -0.850652 0.000000 0.491119 -0.794657 -0.356821 0.691409 0.220273
0.162456 -0.850654 -0.499995 0.491119 -0.794657 -0.356821 0.691410 0.305449
0.688189 -0.525736 -0.499997 0.491119 -0.794657 -0.356821 0.606655 0.262861
0.162456 -0.850654 -0.499995 0.408946 -0.661698 -0.628425 0.691410 0.305449
0.276388 -0.447220 -0.850649 0.408946 -0.661698 -0.628425 0.621734 0.356072
0.688189 -0.525736 -0.499997 0.408946 -0.661698 -0.628425 0.606655 0.262861
-0.850648 -0.525736 0.000000 -0.700224 -0.661699 0.268032 0.866018 0.347132
-0.425323 -0.850654 0.309011 -0.700224 -0.661699 0.268032 0.822481 0.262861
-0.723607 -0.447220 0.525725 -0.700224 -0.661699 0.268032 0.908606 0.262861
-0.850648 -0.525736 0.000000 -0.607060 -0.794656 -0.000000 0.866018 0.347132
-0.425323 -0.850654 -0.309011 -0.607060 -0.794656 -0.000000 0.772417 0.331769
-0.425323 -0.850654 0.309011 -0.607060 -0.794656 -0.000000 0.822481 0.262861
-0.425323 -0.850654 -0.309011 -0.331305 -0.943524 0.000000 0.772417 0.331769
0.000000 -1.000000 0.000000 -0.331305 -0.943524 0.000000 0.750027 0.262860
-0.425323 -0.850654 0.309011 -0.331305 -0.943524 0.000000 0.822481 0.262861
0.162456 -0.850654 -0.499995 0.038530 -0.661699 -0.748779 0.691410 0.305449
-0.262869 -0.525738 -0.809012 0.038530 -0.661699 -0.748779 0.705724 0.399216
0.276388 -0.447220 -0.850649 0.038530 -0.661699 -0.748779 0.621734 0.356072
0.162456 -0.850654 -0.499995 -0.187594 -0.794658 -0.577345 0.691410 0.305449
-0.425323 -0.850654 -0.309011 -0.187594 -0.794658 -0.577345 0.772417 0.331769
-0.262869 -0.525738 -0.809012 -0.187594 -0.794658 -0.577345 0.705724 0.399216
-0.425323 -0.850654 -0.309011 -0.471300 -0.661699 -0.583122 0.772417 0.331769
-0.723607 -0.447220 -0.525725 -0.471300 -0.661699 -0.583122 0.799032 0.413678
-0.262869 -0.525738 -0.809012 -0.471300 -0.661699 -0.583122 0.705724 0.399216
3 0 1 2
3 3 4 5
3 6 7 8
3 9 10 11
3 12 13 14
3 15 16 17
3 18 19 20
3 21 22 23
3 24 25 26
3 27 28 29
3 30 31 32
3 33 34 35
3 36 37 38
3 39 40 41
3 42 43 44
3 45 46 47
3 48 49 50
3 51 52 53
3 54 55 56
3 57 58 59
3 60 61 62
3 63 64 65
3 66 67 68
3 69 70 71
3 72 73 74
3 75 76 77
3 78 79 80
3 81 82 83
3 84 85 86
3 87 88 89
3 90 91 92
3 93 94 95
3 96 97 98
3 99 100 101
3 102 103 104
3 105 106 107
3 108 109 110
3 111 112 113
3 114 115 116
3 117 118 119
3 120 121 122
3 123 124 125
3 126 127 128
3 129 130 131
3 132 133 134
3 135 136 137
3 138 139 140
3 141 142 143
3 144 145 146
3 147 148 149
3 150 151 152
3 153 154 155
3 156 157 158
3 159 160 161
3 162 163 164
3 165 166 167
3 168 169 170
3 171 172 173
3 174 175 176
3 177 178 179
3 180 181 182
3 183 184 185
3 186 187 188
3 189 190 191
3 192 193 194
3 195 196 197
3 198 199 200
3 201 202 203
3 204 205 206
3 207 208 209
3 210 211 212
3 213 214 215
3 216 217 218
3 219 220 221
3 222 223 224
3 225 226 227
3 228 229 230
3 231 232 233
3 234 235 236
3 237 238 239
