<?xml version="1.0" encoding="UTF-8" standalone="no"?>
<!DOCTYPE svg PUBLIC "-//W3C//DTD SVG 1.1//EN"
 "http://www.w3.org/Graphics/SVG/1.1/DTD/svg11.dtd">
<!-- Generated by graphviz version 7.1.0 (0)
 -->
<!-- Title: classes Pages: 1 -->
<svg width="3054pt" height="379pt"
 viewBox="0.00 0.00 3053.50 379.00" xmlns="http://www.w3.org/2000/svg" xmlns:xlink="http://www.w3.org/1999/xlink">
<g id="graph0" class="graph" transform="scale(1 1) rotate(0) translate(4 375)">
<title>classes</title>
<polygon fill="white" stroke="none" points="-4,4 -4,-375 3049.5,-375 3049.5,4 -4,4"/>
<!-- circuitsim_janq0.Capacitor -->
<g id="node1" class="node">
<title>circuitsim_janq0.Capacitor</title>
<polygon fill="none" stroke="black" points="0,-38 0,-182 467,-182 467,-38 0,-38"/>
<text text-anchor="start" x="207" y="-166.8" font-family="Times,serif" font-size="14.00">Capacitor</text>
<polyline fill="none" stroke="black" points="0,-159 467,-159"/>
<text text-anchor="start" x="154.5" y="-143.8" font-family="Times,serif" font-size="14.00">branch : Optional[str | None]</text>
<text text-anchor="start" x="154.5" y="-128.8" font-family="Times,serif" font-size="14.00">branches</text>
<text text-anchor="start" x="154.5" y="-113.8" font-family="Times,serif" font-size="14.00">capacitance : float</text>
<text text-anchor="start" x="154.5" y="-98.8" font-family="Times,serif" font-size="14.00">neg_node : str</text>
<text text-anchor="start" x="154.5" y="-83.8" font-family="Times,serif" font-size="14.00">nodes</text>
<text text-anchor="start" x="154.5" y="-68.8" font-family="Times,serif" font-size="14.00">pos_node : str</text>
<polyline fill="none" stroke="black" points="0,-61 467,-61"/>
<text text-anchor="start" x="8" y="-45.8" font-family="Times,serif" font-size="14.00">stamp(equation: Equation, nodes: Mapping, branches: Mapping, freq: float): None</text>
</g>
<!-- circuitsim_janq0.Element -->
<g id="node4" class="node">
<title>circuitsim_janq0.Element</title>
<polygon fill="none" stroke="black" points="907.5,-279 907.5,-363 1315.5,-363 1315.5,-279 907.5,-279"/>
<text text-anchor="start" x="1088.5" y="-347.8" font-family="Times,serif" font-size="14.00">Element</text>
<polyline fill="none" stroke="black" points="907.5,-340 1315.5,-340"/>
<text text-anchor="start" x="1087" y="-324.8" font-family="Times,serif" font-size="14.00">branches</text>
<text text-anchor="start" x="1087" y="-309.8" font-family="Times,serif" font-size="14.00">nodes</text>
<polyline fill="none" stroke="black" points="907.5,-302 1315.5,-302"/>
<text text-anchor="start" x="915.5" y="-287.8" font-family="Times,serif" font-style="italic" font-size="14.00">stamp</text>
<text text-anchor="start" x="949.5" y="-287.8" font-family="Times,serif" font-size="14.00">(equation: Equation, nodes: Mapping, branches: Mapping): None</text>
</g>
<!-- circuitsim_janq0.Capacitor&#45;&gt;circuitsim_janq0.Element -->
<g id="edge1" class="edge">
<title>circuitsim_janq0.Capacitor&#45;&gt;circuitsim_janq0.Element</title>
<path fill="none" stroke="black" d="M374.68,-181.89C407.48,-196.22 442.71,-209.95 476.5,-220 613.31,-260.67 771.91,-285.66 896.38,-300.49"/>
<polygon fill="none" stroke="black" points="895.71,-303.93 906.05,-301.63 896.53,-296.98 895.71,-303.93"/>
</g>
<!-- circuitsim_janq0.Circuit -->
<g id="node2" class="node">
<title>circuitsim_janq0.Circuit</title>
<polygon fill="none" stroke="black" points="2333.5,-23 2333.5,-197 2525.5,-197 2525.5,-23 2333.5,-23"/>
<text text-anchor="start" x="2410.5" y="-181.8" font-family="Times,serif" font-size="14.00">Circuit</text>
<polyline fill="none" stroke="black" points="2333.5,-174 2525.5,-174"/>
<text text-anchor="start" x="2379.5" y="-158.8" font-family="Times,serif" font-size="14.00">branch_count : int</text>
<text text-anchor="start" x="2379.5" y="-143.8" font-family="Times,serif" font-size="14.00">branches : bidict</text>
<text text-anchor="start" x="2379.5" y="-128.8" font-family="Times,serif" font-size="14.00">elements : list</text>
<text text-anchor="start" x="2379.5" y="-113.8" font-family="Times,serif" font-size="14.00">freq : int</text>
<text text-anchor="start" x="2379.5" y="-98.8" font-family="Times,serif" font-size="14.00">node_count : int</text>
<text text-anchor="start" x="2379.5" y="-83.8" font-family="Times,serif" font-size="14.00">nodes : bidict</text>
<polyline fill="none" stroke="black" points="2333.5,-76 2525.5,-76"/>
<text text-anchor="start" x="2341.5" y="-60.8" font-family="Times,serif" font-size="14.00">add_element(element: Element)</text>
<text text-anchor="start" x="2341.5" y="-45.8" font-family="Times,serif" font-size="14.00">form_equation(): Equation</text>
<text text-anchor="start" x="2341.5" y="-30.8" font-family="Times,serif" font-size="14.00">solve(): tuple[str, float]</text>
</g>
<!-- circuitsim_janq0.IO -->
<g id="node6" class="node">
<title>circuitsim_janq0.IO</title>
<polygon fill="none" stroke="black" points="2378.5,-271.5 2378.5,-370.5 2480.5,-370.5 2480.5,-271.5 2378.5,-271.5"/>
<text text-anchor="start" x="2422" y="-355.3" font-family="Times,serif" font-size="14.00">IO</text>
<polyline fill="none" stroke="black" points="2378.5,-347.5 2480.5,-347.5"/>
<text text-anchor="start" x="2389" y="-332.3" font-family="Times,serif" font-size="14.00">circuit</text>
<text text-anchor="start" x="2389" y="-317.3" font-family="Times,serif" font-size="14.00">elements : dict</text>
<polyline fill="none" stroke="black" points="2378.5,-309.5 2480.5,-309.5"/>
<text text-anchor="start" x="2386.5" y="-294.3" font-family="Times,serif" font-size="14.00">print_results()</text>
<text text-anchor="start" x="2386.5" y="-279.3" font-family="Times,serif" font-size="14.00">print_solution()</text>
</g>
<!-- circuitsim_janq0.Circuit&#45;&gt;circuitsim_janq0.IO -->
<g id="edge6" class="edge">
<title>circuitsim_janq0.Circuit&#45;&gt;circuitsim_janq0.IO</title>
<path fill="none" stroke="black" d="M2429.5,-196.91C2429.5,-217.59 2429.5,-239.26 2429.5,-258.57"/>
<polygon fill="black" stroke="black" points="2429.5,-258.6 2433.5,-264.6 2429.5,-270.6 2425.5,-264.6 2429.5,-258.6"/>
<text text-anchor="middle" x="2447" y="-241.8" font-family="Times,serif" font-size="14.00" fill="green">circuit</text>
</g>
<!-- circuitsim_janq0.CurrentSource -->
<g id="node3" class="node">
<title>circuitsim_janq0.CurrentSource</title>
<polygon fill="none" stroke="black" points="485.5,-38 485.5,-182 859.5,-182 859.5,-38 485.5,-38"/>
<text text-anchor="start" x="632.5" y="-166.8" font-family="Times,serif" font-size="14.00">CurrentSource</text>
<polyline fill="none" stroke="black" points="485.5,-159 859.5,-159"/>
<text text-anchor="start" x="620.5" y="-143.8" font-family="Times,serif" font-size="14.00">branch : NoneType</text>
<text text-anchor="start" x="620.5" y="-128.8" font-family="Times,serif" font-size="14.00">branches</text>
<text text-anchor="start" x="620.5" y="-113.8" font-family="Times,serif" font-size="14.00">current</text>
<text text-anchor="start" x="620.5" y="-98.8" font-family="Times,serif" font-size="14.00">neg_node</text>
<text text-anchor="start" x="620.5" y="-83.8" font-family="Times,serif" font-size="14.00">nodes</text>
<text text-anchor="start" x="620.5" y="-68.8" font-family="Times,serif" font-size="14.00">pos_node</text>
<polyline fill="none" stroke="black" points="485.5,-61 859.5,-61"/>
<text text-anchor="start" x="493.5" y="-45.8" font-family="Times,serif" font-size="14.00">stamp(equation, nodes: Mapping, branches: Mapping, freq: float)</text>
</g>
<!-- circuitsim_janq0.CurrentSource&#45;&gt;circuitsim_janq0.Element -->
<g id="edge2" class="edge">
<title>circuitsim_janq0.CurrentSource&#45;&gt;circuitsim_janq0.Element</title>
<path fill="none" stroke="black" d="M794.98,-181.99C819.09,-195.14 844.38,-208.38 868.5,-220 908.68,-239.36 953.61,-258.51 993.8,-274.8"/>
<polygon fill="none" stroke="black" points="992.47,-278.04 1003.05,-278.53 995.09,-271.54 992.47,-278.04"/>
</g>
<!-- circuitsim_janq0.Equation -->
<g id="node5" class="node">
<title>circuitsim_janq0.Equation</title>
<polygon fill="none" stroke="black" points="2543.5,-0.5 2543.5,-219.5 2887.5,-219.5 2887.5,-0.5 2543.5,-0.5"/>
<text text-anchor="start" x="2690.5" y="-204.3" font-family="Times,serif" font-size="14.00">Equation</text>
<polyline fill="none" stroke="black" points="2543.5,-196.5 2887.5,-196.5"/>
<text text-anchor="start" x="2671.5" y="-181.3" font-family="Times,serif" font-size="14.00">branch_count</text>
<text text-anchor="start" x="2671.5" y="-166.3" font-family="Times,serif" font-size="14.00">coeffs : ndarray</text>
<text text-anchor="start" x="2671.5" y="-151.3" font-family="Times,serif" font-size="14.00">consts : ndarray</text>
<text text-anchor="start" x="2671.5" y="-136.3" font-family="Times,serif" font-size="14.00">node_count</text>
<text text-anchor="start" x="2671.5" y="-121.3" font-family="Times,serif" font-size="14.00">size</text>
<polyline fill="none" stroke="black" points="2543.5,-113.5 2887.5,-113.5"/>
<text text-anchor="start" x="2551.5" y="-98.3" font-family="Times,serif" font-size="14.00">solve()</text>
<text text-anchor="start" x="2551.5" y="-83.3" font-family="Times,serif" font-size="14.00">stamp_branch_consts(value: float, branch: int)</text>
<text text-anchor="start" x="2551.5" y="-68.3" font-family="Times,serif" font-size="14.00">stamp_branch_current(value: float, branch: int, current: int)</text>
<text text-anchor="start" x="2551.5" y="-53.3" font-family="Times,serif" font-size="14.00">stamp_branch_voltage(value: float, branch: int, voltage: int)</text>
<text text-anchor="start" x="2551.5" y="-38.3" font-family="Times,serif" font-size="14.00">stamp_node_consts(value: float, node: int)</text>
<text text-anchor="start" x="2551.5" y="-23.3" font-family="Times,serif" font-size="14.00">stamp_node_current(value: float, node: int, current: int)</text>
<text text-anchor="start" x="2551.5" y="-8.3" font-family="Times,serif" font-size="14.00">stamp_node_voltage(value: float, node: int, voltage: int)</text>
</g>
<!-- circuitsim_janq0.Inductor -->
<g id="node7" class="node">
<title>circuitsim_janq0.Inductor</title>
<polygon fill="none" stroke="black" points="878,-38 878,-182 1345,-182 1345,-38 878,-38"/>
<text text-anchor="start" x="1088.5" y="-166.8" font-family="Times,serif" font-size="14.00">Inductor</text>
<polyline fill="none" stroke="black" points="878,-159 1345,-159"/>
<text text-anchor="start" x="1032.5" y="-143.8" font-family="Times,serif" font-size="14.00">branch : Optional[str | None]</text>
<text text-anchor="start" x="1032.5" y="-128.8" font-family="Times,serif" font-size="14.00">branches</text>
<text text-anchor="start" x="1032.5" y="-113.8" font-family="Times,serif" font-size="14.00">inductance : float</text>
<text text-anchor="start" x="1032.5" y="-98.8" font-family="Times,serif" font-size="14.00">neg_node : str</text>
<text text-anchor="start" x="1032.5" y="-83.8" font-family="Times,serif" font-size="14.00">nodes</text>
<text text-anchor="start" x="1032.5" y="-68.8" font-family="Times,serif" font-size="14.00">pos_node : str</text>
<polyline fill="none" stroke="black" points="878,-61 1345,-61"/>
<text text-anchor="start" x="886" y="-45.8" font-family="Times,serif" font-size="14.00">stamp(equation: Equation, nodes: Mapping, branches: Mapping, freq: float): None</text>
</g>
<!-- circuitsim_janq0.Inductor&#45;&gt;circuitsim_janq0.Element -->
<g id="edge3" class="edge">
<title>circuitsim_janq0.Inductor&#45;&gt;circuitsim_janq0.Element</title>
<path fill="none" stroke="black" d="M1111.5,-181.76C1111.5,-209.9 1111.5,-241.69 1111.5,-267.69"/>
<polygon fill="none" stroke="black" points="1108,-267.68 1111.5,-277.68 1115,-267.68 1108,-267.68"/>
</g>
<!-- circuitsim_janq0.Resistor -->
<g id="node8" class="node">
<title>circuitsim_janq0.Resistor</title>
<polygon fill="none" stroke="black" points="1363,-38 1363,-182 1830,-182 1830,-38 1363,-38"/>
<text text-anchor="start" x="1574" y="-166.8" font-family="Times,serif" font-size="14.00">Resistor</text>
<polyline fill="none" stroke="black" points="1363,-159 1830,-159"/>
<text text-anchor="start" x="1517.5" y="-143.8" font-family="Times,serif" font-size="14.00">branch : Optional[str | None]</text>
<text text-anchor="start" x="1517.5" y="-128.8" font-family="Times,serif" font-size="14.00">branches</text>
<text text-anchor="start" x="1517.5" y="-113.8" font-family="Times,serif" font-size="14.00">neg_node : str</text>
<text text-anchor="start" x="1517.5" y="-98.8" font-family="Times,serif" font-size="14.00">nodes</text>
<text text-anchor="start" x="1517.5" y="-83.8" font-family="Times,serif" font-size="14.00">pos_node : str</text>
<text text-anchor="start" x="1517.5" y="-68.8" font-family="Times,serif" font-size="14.00">resistance : float</text>
<polyline fill="none" stroke="black" points="1363,-61 1830,-61"/>
<text text-anchor="start" x="1371" y="-45.8" font-family="Times,serif" font-size="14.00">stamp(equation: Equation, nodes: Mapping, branches: Mapping, freq: float): None</text>
</g>
<!-- circuitsim_janq0.Resistor&#45;&gt;circuitsim_janq0.Element -->
<g id="edge4" class="edge">
<title>circuitsim_janq0.Resistor&#45;&gt;circuitsim_janq0.Element</title>
<path fill="none" stroke="black" d="M1440.27,-181.9C1411.48,-194.73 1381.63,-207.88 1353.5,-220 1311.06,-238.28 1264.17,-257.81 1223.05,-274.72"/>
<polygon fill="none" stroke="black" points="1221.77,-271.46 1213.85,-278.49 1224.43,-277.93 1221.77,-271.46"/>
</g>
<!-- circuitsim_janq0.Solution -->
<g id="node9" class="node">
<title>circuitsim_janq0.Solution</title>
<polygon fill="none" stroke="black" points="2905.5,-60.5 2905.5,-159.5 3045.5,-159.5 3045.5,-60.5 2905.5,-60.5"/>
<text text-anchor="start" x="2952.5" y="-144.3" font-family="Times,serif" font-size="14.00">Solution</text>
<polyline fill="none" stroke="black" points="2905.5,-136.5 3045.5,-136.5"/>
<text text-anchor="start" x="2913.5" y="-121.3" font-family="Times,serif" font-size="14.00">branches : dict[str, int]</text>
<text text-anchor="start" x="2913.5" y="-106.3" font-family="Times,serif" font-size="14.00">complex : bool</text>
<text text-anchor="start" x="2913.5" y="-91.3" font-family="Times,serif" font-size="14.00">nodes : dict[str, int]</text>
<polyline fill="none" stroke="black" points="2905.5,-83.5 3045.5,-83.5"/>
<text text-anchor="start" x="2973.5" y="-68.3" font-family="Times,serif" font-size="14.00"> </text>
</g>
<!-- circuitsim_janq0.VoltageSource -->
<g id="node10" class="node">
<title>circuitsim_janq0.VoltageSource</title>
<polygon fill="none" stroke="black" points="1848,-38 1848,-182 2315,-182 2315,-38 1848,-38"/>
<text text-anchor="start" x="2041.5" y="-166.8" font-family="Times,serif" font-size="14.00">VoltageSource</text>
<polyline fill="none" stroke="black" points="1848,-159 2315,-159"/>
<text text-anchor="start" x="2042.5" y="-143.8" font-family="Times,serif" font-size="14.00">branch : str</text>
<text text-anchor="start" x="2042.5" y="-128.8" font-family="Times,serif" font-size="14.00">branches</text>
<text text-anchor="start" x="2042.5" y="-113.8" font-family="Times,serif" font-size="14.00">neg_node : str</text>
<text text-anchor="start" x="2042.5" y="-98.8" font-family="Times,serif" font-size="14.00">nodes</text>
<text text-anchor="start" x="2042.5" y="-83.8" font-family="Times,serif" font-size="14.00">pos_node : str</text>
<text text-anchor="start" x="2042.5" y="-68.8" font-family="Times,serif" font-size="14.00">voltage : float</text>
<polyline fill="none" stroke="black" points="1848,-61 2315,-61"/>
<text text-anchor="start" x="1856" y="-45.8" font-family="Times,serif" font-size="14.00">stamp(equation: Equation, nodes: Mapping, branches: Mapping, freq: float): None</text>
</g>
<!-- circuitsim_janq0.VoltageSource&#45;&gt;circuitsim_janq0.Element -->
<g id="edge5" class="edge">
<title>circuitsim_janq0.VoltageSource&#45;&gt;circuitsim_janq0.Element</title>
<path fill="none" stroke="black" d="M1941.42,-181.96C1908.34,-196.42 1872.72,-210.19 1838.5,-220 1670.2,-268.24 1473.1,-293.51 1326.62,-306.56"/>
<polygon fill="none" stroke="black" points="1326.44,-303.07 1316.78,-307.43 1327.05,-310.04 1326.44,-303.07"/>
</g>
</g>
</svg>
