<?xml version="1.0" encoding="UTF-8" standalone="no"?>
<svg
   xmlns:dc="http://purl.org/dc/elements/1.1/"
   xmlns:cc="http://creativecommons.org/ns#"
   xmlns:rdf="http://www.w3.org/1999/02/22-rdf-syntax-ns#"
   xmlns:svg="http://www.w3.org/2000/svg"
   xmlns="http://www.w3.org/2000/svg"
   id="svg8"
   version="1.1"
   viewBox="0 0 91.111565 14.746393"
   height="14.746393mm"
   width="91.111565mm">
  <defs
     id="defs2" />
  <metadata
     id="metadata5">
    <rdf:RDF>
      <cc:Work
         rdf:about="">
        <dc:format>image/svg+xml</dc:format>
        <dc:type
           rdf:resource="http://purl.org/dc/dcmitype/StillImage" />
        <dc:title></dc:title>
      </cc:Work>
    </rdf:RDF>
  </metadata>
  <g
     transform="translate(-54.985884,-152.04347)"
     id="layer1">
    <g
       id="g3721"
       transform="matrix(0.35277777,0,0,-0.35277777,54.985884,166.78986)">
      <g
         id="g3723"
         transform="scale(0.1)">
        <path
           d="M 725.891,302.238 V 83.4297 h 54.047 V 198.84 c 0,40.515 26.121,55.437 54.414,55.437 17.765,0 27.988,-4.726 38.992,-14.14 l 24.347,47.148 c -11.894,11.945 -33.625,20.723 -56.269,20.723 -22.113,0 -44.676,-3.906 -61.484,-30.93 l -4.04,25.16 h -50.007"
           style="fill:#43a4c8;fill-opacity:1;fill-rule:evenodd;stroke:none"
           id="path3725" />
        <path
           d="m 965.039,218.391 c 7.984,28.418 31.953,42.722 61.091,42.722 31.02,0 53.2,-14.304 56.72,-42.722 z m 169.631,-44.786 c 8.48,90.165 -37.22,135.418 -110.29,135.418 -70.857,0 -115.978,-47.91 -115.978,-114.445 0,-70.242 44.766,-116.9217 119.958,-116.9217 33.26,0 70.92,11.5429 94.01,35.6957 l -34.61,34.031 c -12.39,-12.813 -38.59,-20.457 -58.46,-20.457 -38.066,0 -61.609,19.707 -65.128,46.679 h 170.498 v 0"
           style="fill:#43a4c8;fill-opacity:1;fill-rule:evenodd;stroke:none"
           id="path3727" />
        <path
           d="m 2572.59,279.758 c -25.31,22.195 -50.93,28.808 -85.08,28.808 -39.96,0 -92.12,-17.863 -92.12,-68.429 0,-49.649 49,-64.676 90.39,-67.832 30.86,-1.883 43.34,-8.047 43.34,-23.067 0,-15.965 -18.99,-26.777 -39.44,-26.203 -24.31,0.512 -59.72,13.379 -75.37,30.656 l -26.4,-38.699 c 31.81,-33.3397 66.34,-39.1912 100.91,-39.1912 62.35,0 93.87,33.4102 93.87,72.1402 0,58.172 -52.15,67.301 -93.53,70.047 -27.7,1.711 -40.65,9.864 -40.65,24.035 0,13.7 14.26,21.747 39.88,21.747 20.88,0 38.44,-5.02 53.95,-19.688 z M 2339.47,146.973 c -13.19,-13.243 -30.45,-18.172 -47.72,-18.172 -33.69,0 -62.03,22.285 -62.03,63.941 0,38.071 26.51,64.692 62.91,64.692 14.94,0 30.88,-5.774 43.71,-17.297 l 34.28,35.918 c -24.08,23.574 -47.89,32.511 -78.87,32.511 -63.34,0 -116.13,-38.273 -116.13,-115.824 0,-77.75 52.79,-115.8084 116.13,-115.8084 32.27,0 58.87,9.668 84.1,34.5824 z M 2139.8,303.281 V 83.4297 h -54.04 V 303.281 Z M 1888.1,83.4297 V 200.574 c 0,28.949 18.22,54.262 47.36,54.262 29.38,0 41.23,-24.356 41.23,-53.184 V 83.4297 h 54.07 V 201.652 c 0,65.606 -30.45,103.739 -92.48,103.739 -28.44,0 -53.7,-8.914 -73.21,-39.844 -12.46,30.207 -38.41,40.742 -64.63,40.742 -20.8,0 -46.05,-7.949 -57.55,-30.234 l -4.13,26.75 h -49.94 V 83.4297 h 54.07 V 200.574 c 0,28.949 17.26,55.149 46.4,55.149 29.73,0 44.77,-26.2 44.77,-55.149 V 83.4297 Z M 1424.86,302.238 V 187.305 c 0,-67.996 38.12,-107.4222 90.31,-107.4222 30.65,0 51.45,10.6133 73.89,32.9412 l 3.53,-29.3943 h 48.28 V 302.238 h -53.45 V 190.781 c 0,-33.718 -22.68,-61.504 -55.92,-61.504 -34.55,0 -52.75,25.176 -52.75,58.438 V 302.238 Z M 1385.89,83.4297 V 198.527 c 0,68.731 -41.23,107.411 -92.69,107.411 -27.48,0 -49.59,-11.172 -71.67,-32.93 l -3.53,29.797 h -48.3 V 83.4297 h 53.48 V 195.352 c 0,33.281 22.66,61.3 55.92,61.3 34.55,0 52.75,-25.422 52.75,-58.691 V 83.4297 h 54.04 v 0"
           style="fill:#203968;fill-opacity:1;fill-rule:evenodd;stroke:none"
           id="path3729" />
        <path
           d="m 2085.76,331.691 h 54.04 v 47.539 h -54.04 v -47.539"
           style="fill:#43a4c8;fill-opacity:1;fill-rule:evenodd;stroke:none"
           id="path3731" />
        <path
           d="m 519.496,330.469 h 41.356 c 6.125,0 11.144,-5.02 11.144,-11.153 v -41.347 c 0,-6.133 -5.019,-11.153 -11.144,-11.153 h -41.356 c -6.129,0 -11.144,5.02 -11.144,11.153 v 41.347 c 0,6.133 5.015,11.153 11.144,11.153"
           style="fill:#43a4c8;fill-opacity:1;fill-rule:evenodd;stroke:none"
           id="path3733" />
        <path
           d="m 393.418,66.1719 h 42.992 c 6.379,0 11.598,-5.2149 11.598,-11.5938 V 11.5938 C 448.008,5.21484 442.789,0 436.41,0 h -42.992 c -6.371,0 -11.594,5.21484 -11.594,11.5938 v 42.9843 c 0,6.3789 5.223,11.5938 11.594,11.5938"
           style="fill:#43a4c8;fill-opacity:1;fill-rule:evenodd;stroke:none"
           id="path3735" />
        <path
           d="m 110.309,337.668 h 42.558 c 6.313,0 11.473,-5.168 11.473,-11.477 v -42.558 c 0,-6.309 -5.16,-11.485 -11.473,-11.485 h -42.558 c -6.317,0 -11.477,5.176 -11.477,11.485 v 42.558 c 0,6.309 5.16,11.477 11.477,11.477"
           style="fill:#4683c6;fill-opacity:1;fill-rule:evenodd;stroke:none"
           id="path3737" />
        <path
           d="m 192.109,266.094 h 53.063 c 7.863,0 14.301,-6.426 14.301,-14.297 V 198.73 c 0,-7.863 -6.438,-14.296 -14.301,-14.296 h -53.063 c -7.867,0 -14.3,6.433 -14.3,14.296 v 53.067 c 0,7.871 6.433,14.297 14.3,14.297"
           style="fill:#4683c6;fill-opacity:1;fill-rule:evenodd;stroke:none"
           id="path3739" />
        <path
           d="m 220.293,418.008 h 52.523 c 7.789,0 14.157,-6.367 14.157,-14.149 v -52.531 c 0,-7.781 -6.368,-14.16 -14.157,-14.16 h -52.523 c -7.781,0 -14.156,6.379 -14.156,14.16 v 52.531 c 0,7.782 6.375,14.149 14.156,14.149"
           style="fill:#43a4c8;fill-opacity:1;fill-rule:evenodd;stroke:none"
           id="path3741" />
        <path
           d="m 387.652,408.008 h 56.379 c 8.364,0 15.199,-6.824 15.199,-15.176 v -56.309 c 0,-8.339 -6.835,-15.175 -15.199,-15.175 h -56.379 c -8.355,0 -15.195,6.836 -15.195,15.175 v 56.309 c 0,8.352 6.84,15.176 15.195,15.176"
           style="fill:#43a4c8;fill-opacity:1;fill-rule:evenodd;stroke:none"
           id="path3743" />
        <path
           d="m 301.617,315.313 h 43.68 c 6.48,0 11.777,-5.293 11.777,-11.778 v -43.691 c 0,-6.465 -5.297,-11.778 -11.777,-11.778 h -43.68 c -6.48,0 -11.777,5.313 -11.777,11.778 v 43.691 c 0,6.485 5.297,11.778 11.777,11.778"
           style="fill:#43a4c8;fill-opacity:1;fill-rule:evenodd;stroke:none"
           id="path3745" />
        <path
           d="m 419.281,348.957 -82.914,-63.691 -10.742,13.933 82.91,63.731 10.746,-13.973"
           style="fill:#43a4c8;fill-opacity:1;fill-rule:nonzero;stroke:none"
           id="path3747" />
        <path
           d="m 291.266,175.93 h 61.168 c 9.066,0 16.488,-7.414 16.488,-16.485 V 98.2734 c 0,-9.0742 -7.422,-16.4961 -16.488,-16.4961 h -61.168 c -9.071,0 -16.493,7.4219 -16.493,16.4961 v 61.1716 c 0,9.071 7.422,16.485 16.493,16.485"
           style="fill:#4683c6;fill-opacity:1;fill-rule:evenodd;stroke:none"
           id="path3749" />
        <path
           d="m 300.73,143.965 -84.496,61.57 10.344,14.231 84.535,-61.543 -10.383,-14.258"
           style="fill:#4683c6;fill-opacity:1;fill-rule:nonzero;stroke:none"
           id="path3751" />
        <path
           d="m 451.586,266.719 h -53.063 c -7.863,0 -14.3,-6.446 -14.3,-14.309 v -53.055 c 0,-7.871 6.437,-14.304 14.3,-14.304 h 53.063 c 7.867,0 14.305,6.433 14.305,14.304 v 53.055 c 0,7.863 -6.438,14.309 -14.305,14.309"
           style="fill:#4683c6;fill-opacity:1;fill-rule:evenodd;stroke:none"
           id="path3753" />
        <path
           d="m 342.965,144.57 84.496,61.582 -10.344,14.239 -84.535,-61.563 10.383,-14.258"
           style="fill:#4683c6;fill-opacity:1;fill-rule:nonzero;stroke:none"
           id="path3755" />
        <path
           d="m 539.563,213.906 h 36.382 c 5.395,0 9.817,-4.402 9.817,-9.804 v -36.399 c 0,-5.398 -4.422,-9.812 -9.817,-9.812 h -36.382 c -5.391,0 -9.817,4.414 -9.817,9.812 v 36.399 c 0,5.402 4.426,9.804 9.817,9.804"
           style="fill:#43a4c8;fill-opacity:1;fill-rule:evenodd;stroke:none"
           id="path3757" />
        <path
           d="m 461.367,150.176 h 45.039 c 6.676,0 12.149,-5.449 12.149,-12.129 V 92.9805 c 0,-6.6797 -5.473,-12.1407 -12.149,-12.1407 h -45.039 c -6.676,0 -12.148,5.461 -12.148,12.1407 v 45.0665 c 0,6.68 5.472,12.129 12.148,12.129"
           style="fill:#43a4c8;fill-opacity:1;fill-rule:evenodd;stroke:none"
           id="path3759" />
        <path
           d="m 488.652,110.949 78.938,68.563 -11.52,13.301 -78.976,-68.543 11.558,-13.321"
           style="fill:#43a4c8;fill-opacity:1;fill-rule:nonzero;stroke:none"
           id="path3761" />
        <path
           d="m 113.914,161.406 h 43.691 c 6.481,0 11.786,-5.293 11.786,-11.777 v -43.691 c 0,-6.4732 -5.305,-11.7778 -11.786,-11.7778 h -43.691 c -6.465,0 -11.766,5.3046 -11.766,11.7778 v 43.691 c 0,6.484 5.301,11.777 11.766,11.777"
           style="fill:#43a4c8;fill-opacity:1;fill-rule:evenodd;stroke:none"
           id="path3763" />
        <path
           d="m 15.1719,256.223 h 56.3164 c 8.3515,0 15.1875,-6.817 15.1875,-15.176 v -56.32 c 0,-8.34 -6.836,-15.176 -15.1875,-15.176 H 15.1719 C 6.83594,169.551 0,176.387 0,184.727 v 56.32 c 0,8.359 6.83594,15.176 15.1719,15.176"
           style="fill:#43a4c8;fill-opacity:1;fill-rule:evenodd;stroke:none"
           id="path3765" />
        <path
           d="m 137.898,122.852 -84.4644,61.621 10.3516,14.218 84.4998,-61.582 -10.387,-14.257"
           style="fill:#43a4c8;fill-opacity:1;fill-rule:nonzero;stroke:none"
           id="path3767" />
        <path
           d="m 2086.25,330.605 h 53.22 v 46.758 h -53.22 v -46.758"
           style="fill:#43a4c8;fill-opacity:1;fill-rule:evenodd;stroke:none"
           id="path3769" />
      </g>
    </g>
  </g>
</svg>
